<svg width="400" height="400" viewBox="0 0 400 400" fill="none" xmlns="http://www.w3.org/2000/svg">
<rect width="400" height="400" fill="#F7E018"/>
<path d="M186.52 259H203.32V240.4H209.08C231.76 240.4 245.56 228.64 245.56 208.96C245.56 189.28 231.88 177.4 209.08 177.4H186.52V259ZM203.32 225.64V192.16H208.6C222.04 192.16 228.28 197.68 228.28 208.96C228.28 220.12 222.28 225.64 208.6 225.64H203.32ZM258.59 259H312.35V244.24H275.39V177.4H258.59V259ZM325.856 259H381.536V244.24H342.656V232.48H375.416V218.08H342.656V192.16H379.856V177.4H325.856V259ZM181.24 375H198.88L211.48 353.28C214 348.96 216.52 341.76 216.52 341.76C216.52 341.76 219.64 349.08 222.16 353.28L235 375H254.2L227.08 330.24L248.92 293.4H231.04L223.12 307.44C220.72 311.64 218.44 318.6 218.44 318.6C218.44 318.6 215.44 311.52 213.04 307.44L204.76 293.4H185.68L207.88 330.12L181.24 375ZM266.099 375H282.899V293.4H266.099V375ZM323.712 376.08C339.672 376.08 351.552 367.8 351.552 352.68C351.552 338.64 343.512 332.4 329.232 326.28L325.032 324.48C317.832 321.36 314.712 319.32 314.712 314.28C314.712 310.2 317.832 307.08 322.752 307.08C327.552 307.08 330.672 309.12 333.552 314.28L346.632 305.88C341.112 296.16 333.432 292.44 322.752 292.44C307.752 292.44 298.152 302.04 298.152 314.64C298.152 328.32 306.192 334.8 318.312 339.96L322.512 341.76C330.192 345.12 334.752 347.16 334.752 352.92C334.752 357.72 330.312 361.2 323.352 361.2C315.072 361.2 310.392 356.88 306.792 351L293.112 358.92C298.032 368.64 308.112 376.08 323.712 376.08Z" fill="black"/>
</svg>
